<?xml version="1.0" standalone="no"?>
<!DOCTYPE svg PUBLIC "-//W3C//DTD SVG 20010904//EN"
 "http://www.w3.org/TR/2001/REC-SVG-20010904/DTD/svg10.dtd">
<svg version="1.0" xmlns="http://www.w3.org/2000/svg"
 width="1280.000000pt" height="1280.000000pt" viewBox="0 0 1280.000000 1280.000000"
 preserveAspectRatio="xMidYMid meet">
<metadata>
Created by potrace 1.15, written by Peter Selinger 2001-2017
</metadata>
<g transform="translate(0.000000,1280.000000) scale(0.100000,-0.100000)"
fill="#000000" stroke="none">
<path d="M4085 12785 c-110 -55 -181 -262 -194 -565 l-6 -145 -22 41 c-36 67
-136 195 -205 263 -134 130 -336 253 -526 320 -75 27 -84 28 -90 13 -4 -9 -7
-120 -7 -247 0 -248 9 -313 61 -472 27 -80 92 -218 125 -265 11 -14 19 -29 19
-31 0 -3 -51 18 -112 48 -245 117 -460 146 -552 74 -59 -47 -84 -154 -51 -219
37 -71 150 -100 212 -54 105 78 97 214 -17 272 l-45 23 78 -6 c108 -8 231 -46
373 -114 104 -50 134 -71 215 -146 52 -47 128 -109 169 -137 41 -28 66 -48 55
-45 -11 3 -66 19 -123 36 -342 101 -660 43 -875 -159 -34 -32 -59 -61 -56 -64
3 -3 43 1 90 9 46 9 143 16 214 17 106 1 144 -3 208 -20 157 -44 279 -123 418
-270 123 -130 196 -236 359 -523 66 -117 157 -198 305 -272 134 -67 202 -82
365 -82 132 0 149 2 188 23 42 22 44 23 58 5 45 -55 251 -375 310 -478 102
-181 238 -466 280 -590 20 -60 43 -117 49 -125 13 -16 77 -201 71 -207 -2 -2
-38 47 -81 108 -515 733 -1174 1226 -1875 1404 -220 56 -317 67 -616 72 l-281
5 -17 30 c-19 31 -51 48 -92 48 -21 0 -24 -5 -24 -36 0 -27 7 -43 31 -65 17
-16 35 -29 39 -29 4 0 10 -127 13 -282 4 -228 9 -306 26 -401 145 -811 630
-1511 1449 -2091 62 -44 110 -81 109 -83 -6 -5 -191 59 -207 72 -8 7 -46 23
-85 35 -236 76 -611 270 -920 476 -231 154 -211 134 -183 186 21 39 23 56 23
188 0 171 -16 236 -96 391 -86 164 -144 217 -394 358 -288 162 -505 362 -601
553 -59 117 -78 204 -76 353 1 72 8 168 17 214 8 47 12 87 9 90 -11 11 -122
-117 -163 -186 -119 -202 -141 -472 -61 -743 17 -58 34 -114 37 -125 3 -11
-17 14 -45 55 -28 41 -90 117 -137 169 -75 81 -96 111 -146 215 -68 142 -108
271 -115 376 l-5 75 23 -45 c58 -114 194 -122 272 -17 46 62 17 175 -54 212
-65 33 -172 8 -219 -51 -72 -92 -43 -307 74 -551 30 -62 51 -113 48 -113 -2 0
-17 8 -31 19 -85 59 -270 134 -417 167 -82 19 -365 30 -491 19 l-86 -7 7 -34
c18 -100 136 -332 235 -464 88 -118 227 -242 355 -316 l50 -29 -145 -6 c-255
-11 -445 -63 -526 -144 -47 -48 -61 -90 -50 -157 14 -86 74 -133 161 -126 91
8 145 68 145 162 0 40 -5 52 -38 88 -35 37 -44 41 -103 47 l-64 6 80 32 c126
49 235 66 430 67 152 1 179 -2 250 -23 44 -13 125 -31 180 -41 l100 -17 -90
-13 c-301 -42 -540 -162 -688 -345 -48 -59 -121 -195 -133 -247 -6 -26 0 -23
93 39 112 76 229 133 323 159 100 28 328 26 435 -4 196 -56 369 -140 590 -287
221 -147 296 -171 529 -162 163 6 235 23 364 88 l83 42 47 -33 c199 -141 430
-285 555 -346 42 -21 79 -46 82 -55 3 -9 20 -21 38 -27 32 -11 32 -11 -8 -6
-22 3 -74 12 -115 20 -446 84 -762 9 -996 -238 -83 -88 -134 -168 -177 -280
-29 -76 -31 -93 -31 -203 0 -141 15 -184 88 -263 64 -68 142 -104 237 -110 67
-4 83 -1 138 23 72 33 145 107 161 163 30 108 -4 186 -105 248 l-30 18 31 -35
c89 -97 83 -199 -16 -266 -86 -59 -248 -5 -302 100 -62 122 37 309 210 396
l63 32 192 -3 192 -3 65 31 c36 17 101 61 145 98 148 124 233 151 437 141 154
-7 173 -11 391 -91 114 -42 154 -60 140 -65 -10 -4 -99 -8 -198 -8 -251 -2
-346 -31 -456 -140 -67 -68 -85 -118 -98 -277 -6 -62 -13 -134 -17 -161 l-6
-49 143 18 c164 20 192 28 248 68 61 45 105 120 145 251 21 69 48 132 66 158
36 49 104 95 176 118 l52 16 179 -46 c412 -106 609 -132 1028 -132 l320 0 3
265 c4 418 -35 722 -150 1142 -31 117 -32 118 -15 171 23 73 68 141 118 177
26 18 89 45 158 66 131 40 206 84 251 145 40 56 48 84 68 248 l18 143 -51 -7
c-27 -3 -99 -10 -159 -15 -157 -13 -209 -32 -277 -99 -109 -110 -138 -205
-140 -456 0 -99 -4 -188 -8 -198 -5 -14 -23 26 -65 140 -80 218 -84 233 -91
390 -10 205 17 289 141 438 36 44 80 109 98 145 l31 65 -3 192 -3 192 32 63
c63 125 200 228 306 230 122 3 222 -115 211 -249 -7 -84 -60 -141 -140 -150
-51 -6 -94 12 -147 61 l-35 31 18 -30 c62 -101 140 -135 248 -105 56 16 130
89 163 161 24 55 27 71 23 138 -6 95 -42 173 -110 237 -79 74 -122 88 -263 88
-110 0 -127 -3 -203 -32 -45 -17 -110 -47 -144 -68 -72 -44 -186 -148 -238
-220 -159 -214 -206 -523 -135 -889 7 -38 16 -88 19 -110 5 -40 5 -40 -6 -8
-6 18 -18 35 -27 38 -9 3 -34 40 -55 82 -54 111 -122 222 -259 426 l-120 179
35 66 c20 37 49 105 64 152 26 79 28 97 28 255 1 238 -12 280 -159 500 -149
224 -238 405 -287 587 -30 111 -32 339 -4 438 26 94 83 211 159 323 75 112 73
114 -50 57 -275 -127 -449 -399 -503 -785 l-13 -90 -17 101 c-10 56 -28 135
-41 175 -21 66 -23 92 -23 249 0 200 17 307 67 435 l32 80 6 -64 c6 -59 10
-68 47 -103 36 -33 48 -38 88 -38 96 0 155 54 162 149 2 44 -1 63 -18 89 -38
61 -148 90 -215 57z m-114 -1433 c240 -246 337 -377 454 -617 75 -154 126
-285 188 -483 l35 -112 -36 29 c-50 40 -266 262 -330 340 -118 142 -245 354
-327 546 -50 117 -109 287 -126 364 -5 25 -12 54 -15 64 -3 9 -1 17 4 17 5 0
74 -66 153 -148z m619 -282 c65 -130 103 -235 125 -342 26 -129 46 -496 26
-484 -15 10 -140 222 -172 291 -94 209 -148 497 -132 706 l6 81 44 -69 c25
-37 71 -120 103 -183z m-797 -281 c286 -143 436 -277 626 -562 67 -101 71
-110 37 -97 -61 23 -256 125 -320 168 -81 53 -245 208 -316 298 -52 64 -160
231 -160 246 0 13 3 12 133 -53z m-542 -603 c475 -83 920 -296 1349 -644 123
-100 412 -388 527 -526 90 -107 272 -359 327 -452 29 -48 44 -94 75 -234 60
-270 103 -570 100 -715 -1 -43 -4 -33 -26 70 -53 259 -165 533 -301 736 -293
436 -717 674 -1240 696 -152 6 -154 6 -195 38 -58 43 -103 68 -167 94 -50 19
-191 54 -197 48 -6 -6 29 -147 48 -197 26 -64 51 -109 94 -167 32 -41 32 -43
38 -195 22 -526 260 -947 702 -1243 224 -150 464 -243 805 -314 l45 -9 -50 -1
c-142 -3 -444 39 -715 100 -140 31 -186 46 -235 75 -91 54 -343 237 -453 328
-137 114 -423 402 -524 526 -348 428 -561 874 -644 1349 -22 123 -27 188 -31
410 l-6 264 264 -6 c222 -4 287 -9 410 -31z m2669 -840 c0 -2 -21 -17 -47 -32
-172 -99 -258 -199 -324 -374 -35 -93 -38 -65 -4 37 33 97 77 164 156 238 68
63 219 154 219 131z m-2180 -187 c47 -7 89 -15 93 -19 4 -4 -19 -19 -53 -33
-57 -25 -62 -30 -87 -87 -14 -34 -29 -57 -33 -53 -6 7 -30 158 -30 191 0 15 4
15 110 1z m-1685 -74 c48 -30 115 -77 149 -104 91 -73 235 -226 294 -313 47
-69 148 -259 172 -324 13 -34 4 -30 -97 37 -205 137 -353 276 -445 419 -47 72
-178 319 -178 335 0 12 22 2 105 -50z m2217 -31 c495 -85 879 -387 1118 -878
126 -259 197 -531 221 -848 5 -77 8 -142 6 -145 -9 -8 -285 17 -393 36 -496
87 -920 316 -1178 637 -201 251 -301 523 -322 873 l-7 114 57 -6 c32 -3 84 -1
116 5 l58 10 10 58 c6 32 8 84 5 116 l-6 57 114 -7 c63 -3 153 -13 201 -22z
m-439 -83 c-37 -38 -69 -66 -71 -62 -1 4 1 32 5 62 8 54 8 54 48 60 92 14 92
14 18 -60z m-2402 -15 c300 -82 640 -255 859 -436 79 -66 301 -281 341 -332
l29 -36 -112 35 c-261 81 -504 185 -663 283 -123 76 -264 191 -427 348 -135
132 -171 172 -155 172 2 0 59 -15 128 -34z m324 -597 c247 -21 456 -88 662
-211 162 -97 163 -98 78 -98 -112 0 -344 19 -421 35 -150 30 -314 100 -502
214 l-94 56 59 6 c32 3 67 6 78 7 11 1 74 -3 140 -9z m2105 -1108 c-175 -66
-275 -152 -375 -324 -42 -74 -42 -48 2 35 74 141 204 252 353 299 88 28 102
21 20 -10z"/>
<path d="M2973 9901 c-28 -4 -55 -10 -59 -14 -29 -29 -32 -485 -5 -672 45
-304 162 -633 312 -880 49 -82 348 -459 357 -451 1 2 -30 55 -71 117 -230 352
-355 637 -446 1021 -60 251 -73 354 -69 570 2 108 7 200 11 205 5 4 97 10 204
11 166 3 214 1 322 -18 504 -87 877 -234 1291 -510 47 -31 92 -60 100 -65 81
-44 -372 315 -470 373 -260 153 -593 268 -893 307 -120 15 -476 19 -584 6z"/>
<path d="M4735 8173 c-44 -8 -83 -17 -87 -21 -11 -11 -38 -182 -38 -239 0
-140 48 -243 169 -364 138 -138 272 -194 609 -252 73 -13 134 -22 135 -20 2 1
-9 73 -24 158 -56 319 -110 446 -249 586 -153 156 -283 194 -515 152z m259
-294 c190 -80 357 -249 431 -436 40 -101 41 -106 13 -98 -229 69 -425 244
-517 461 -16 38 -32 80 -36 92 -6 22 -5 23 17 17 12 -4 54 -20 92 -36z"/>
<path d="M4940 7854 c0 -21 90 -172 130 -218 95 -109 265 -239 354 -272 26
-10 19 8 -41 108 -88 147 -223 280 -352 347 -80 42 -91 46 -91 35z"/>
<path d="M8563 12780 c-60 -27 -85 -70 -81 -141 7 -95 66 -149 162 -149 40 0
52 5 88 38 37 35 41 44 47 103 l6 64 32 -80 c49 -126 66 -235 67 -430 0 -160
-2 -177 -31 -285 -17 -64 -35 -144 -39 -178 -3 -35 -8 -61 -10 -60 -2 2 -10
50 -18 108 -56 372 -229 635 -499 760 -123 57 -125 55 -50 -57 76 -112 133
-229 159 -323 14 -49 19 -100 18 -210 0 -127 -3 -157 -27 -241 -53 -187 -132
-348 -282 -574 -147 -220 -160 -262 -159 -500 0 -158 2 -176 28 -255 15 -47
44 -115 64 -152 l36 -68 -34 -47 c-141 -200 -285 -430 -346 -556 -21 -42 -46
-79 -55 -82 -9 -3 -21 -20 -27 -38 -10 -30 -10 -29 -5 13 3 25 11 74 18 110
59 287 36 569 -60 760 -49 97 -97 161 -182 241 -85 80 -166 130 -275 171 -76
29 -93 32 -203 32 -141 0 -184 -14 -263 -88 -68 -64 -104 -142 -110 -237 -4
-67 -1 -83 23 -138 33 -72 107 -145 163 -161 108 -30 186 4 248 105 l18 30
-35 -31 c-97 -89 -199 -83 -266 16 -59 86 -5 248 100 302 122 62 309 -37 396
-210 l32 -63 -3 -192 -3 -192 31 -65 c18 -36 62 -101 98 -145 124 -149 151
-233 141 -437 -7 -154 -11 -173 -91 -391 -42 -114 -60 -154 -65 -140 -4 10 -8
99 -8 198 -2 251 -31 346 -140 456 -68 67 -120 86 -277 99 -60 5 -132 12 -159
15 l-51 7 18 -143 c20 -164 28 -192 68 -248 45 -61 120 -105 251 -145 69 -21
132 -48 158 -66 50 -36 95 -104 118 -177 17 -53 16 -54 -15 -171 -115 -420
-154 -724 -150 -1142 l3 -265 320 0 c419 0 616 26 1028 132 l179 46 52 -16
c72 -23 140 -69 176 -118 18 -26 45 -89 66 -158 40 -131 84 -206 145 -251 56
-40 84 -48 248 -68 l143 -18 -6 49 c-4 27 -11 99 -17 161 -13 159 -31 209 -98
277 -110 109 -205 138 -456 140 -99 0 -188 4 -198 8 -14 5 26 23 140 65 218
80 237 84 391 91 204 10 289 -17 437 -141 44 -37 109 -81 145 -98 l65 -31 192
3 192 3 63 -32 c173 -87 272 -274 210 -396 -54 -105 -216 -159 -302 -100 -99
67 -105 169 -16 266 l31 35 -30 -18 c-101 -62 -135 -140 -105 -248 16 -56 89
-130 161 -163 55 -24 71 -27 138 -23 95 6 173 42 237 110 74 79 88 122 88 263
0 110 -3 127 -32 203 -42 111 -92 192 -176 280 -234 247 -550 322 -996 238
-41 -8 -93 -17 -115 -20 -40 -5 -40 -5 -8 6 18 6 35 18 38 27 3 9 40 34 82 55
111 54 222 122 426 259 l177 119 83 -41 c128 -65 201 -82 363 -88 232 -9 308
14 529 162 226 150 387 229 574 282 84 24 114 27 241 27 110 1 161 -4 210 -18
94 -26 211 -83 323 -159 93 -62 99 -65 93 -39 -12 52 -85 188 -133 247 -145
178 -374 297 -663 341 l-114 17 99 17 c55 10 136 28 180 41 71 21 98 24 250
23 195 -1 304 -18 430 -67 l80 -32 -64 -6 c-59 -6 -68 -10 -104 -48 -38 -41
-39 -45 -35 -100 5 -67 31 -111 82 -135 47 -22 114 -20 154 4 63 38 90 144 56
216 -52 108 -261 180 -564 193 l-145 6 55 32 c171 99 321 252 438 445 68 112
152 307 152 352 0 32 -436 34 -575 2 -147 -33 -332 -108 -417 -167 -14 -11
-29 -19 -31 -19 -3 0 18 51 48 113 117 244 146 459 74 551 -47 59 -154 84
-219 51 -71 -37 -100 -150 -54 -212 78 -105 214 -97 272 17 l23 45 -5 -75 c-7
-105 -47 -234 -115 -376 -50 -104 -71 -134 -146 -215 -47 -52 -109 -128 -137
-169 -28 -41 -48 -66 -45 -55 3 11 19 66 36 121 87 296 58 570 -84 784 -44 66
-130 158 -140 149 -2 -3 2 -43 10 -90 9 -46 16 -142 17 -214 2 -149 -17 -236
-76 -353 -96 -191 -313 -391 -601 -553 -178 -100 -233 -139 -286 -198 -91
-102 -165 -252 -196 -395 -22 -106 -14 -287 16 -344 27 -52 47 -32 -184 -186
-309 -206 -684 -400 -920 -476 -38 -12 -77 -28 -85 -35 -16 -13 -201 -77 -207
-72 -1 2 47 39 109 83 818 579 1304 1280 1449 2091 17 95 22 173 26 401 3 155
9 282 13 282 4 0 22 13 39 29 24 22 31 38 31 65 0 35 -1 36 -36 36 -27 0 -43
-7 -65 -31 -16 -17 -29 -35 -29 -39 0 -4 -127 -10 -282 -13 -301 -5 -398 -16
-616 -71 -704 -179 -1365 -674 -1879 -1408 -42 -60 -78 -107 -79 -105 -6 6 58
191 71 207 6 8 24 53 40 100 79 239 265 597 471 905 154 231 134 211 186 183
39 -21 56 -23 188 -23 163 0 231 15 365 82 148 74 239 155 305 272 163 287
236 393 359 523 139 147 261 226 418 270 64 17 102 21 208 20 72 -1 168 -8
214 -17 47 -8 87 -12 90 -10 9 10 -83 96 -149 140 -215 143 -487 172 -785 83
-55 -16 -109 -32 -120 -35 -11 -3 14 17 55 45 41 28 117 90 169 137 81 75 111
96 215 146 142 68 265 106 373 114 l78 6 -45 -23 c-114 -58 -122 -194 -17
-272 62 -46 175 -17 212 54 33 65 8 172 -51 219 -92 72 -307 43 -551 -74 -62
-30 -113 -51 -113 -48 0 2 8 17 19 31 59 85 134 271 167 417 18 83 30 366 19
490 l-7 87 -34 -6 c-18 -4 -72 -22 -119 -41 -287 -116 -524 -313 -661 -550
l-29 -50 -6 145 c-13 303 -85 512 -193 564 -45 21 -101 20 -153 -4z m427
-1283 c0 -2 -15 -59 -34 -128 -82 -299 -256 -641 -436 -859 -66 -79 -281 -301
-332 -341 l-36 -29 35 112 c81 261 185 504 283 663 76 123 191 264 348 427
132 135 172 171 172 155z m-631 -446 c-16 -193 -49 -331 -119 -493 -37 -84
-163 -302 -181 -314 -20 -12 0 355 26 484 30 150 109 335 218 510 l52 83 7
-73 c4 -40 3 -129 -3 -197z m781 -209 c0 -15 -108 -182 -160 -246 -70 -89
-234 -243 -315 -297 -65 -43 -260 -146 -321 -169 -34 -13 -30 -4 37 97 128
192 271 347 399 434 60 40 335 188 353 189 4 0 7 -4 7 -8z m1077 -884 c-6
-273 -19 -387 -68 -588 -95 -385 -298 -782 -583 -1140 -111 -140 -400 -432
-548 -556 -110 -91 -363 -274 -453 -328 -49 -29 -95 -44 -235 -75 -271 -61
-573 -103 -715 -100 l-50 1 45 9 c342 71 585 166 811 317 436 293 674 718 696
1240 l6 153 39 52 c43 57 78 126 102 202 21 64 35 144 27 149 -11 6 -135 -23
-191 -45 -64 -26 -109 -51 -167 -94 -41 -32 -43 -32 -195 -38 -523 -22 -945
-259 -1239 -696 -137 -203 -249 -475 -302 -736 -22 -103 -25 -113 -26 -70 -3
145 45 479 104 735 27 118 44 169 71 215 54 90 237 343 328 453 114 137 402
423 526 524 419 341 877 561 1323 639 175 31 246 36 486 38 l214 1 -6 -262z
m-3253 -645 c142 -75 256 -213 300 -362 26 -88 17 -92 -14 -8 -44 118 -124
232 -207 293 -37 28 -89 63 -115 78 -45 26 -56 36 -42 36 3 0 38 -17 78 -37z
m2206 -155 c0 -33 -24 -184 -30 -191 -4 -4 -19 19 -33 53 -25 57 -30 62 -87
87 -33 14 -58 29 -55 32 7 6 132 28 178 30 16 0 27 -4 27 -11z m1680 -23 c0
-16 -131 -263 -178 -335 -92 -143 -240 -282 -445 -419 -101 -67 -110 -71 -97
-37 23 61 126 256 169 321 54 81 208 245 297 315 64 52 231 160 246 160 4 0 8
-2 8 -5z m-2013 -111 c-3 -30 -1 -82 5 -114 l10 -58 58 -10 c32 -6 84 -8 116
-5 l57 6 -7 -114 c-12 -208 -53 -385 -127 -556 -214 -487 -720 -840 -1373
-954 -108 -19 -384 -44 -393 -36 -8 9 17 285 36 393 112 640 451 1138 926
1360 190 88 410 138 629 143 l69 1 -6 -56z m184 -3 c4 -3 10 -33 13 -66 l6
-60 -34 38 c-19 21 -52 54 -73 73 l-38 34 60 -6 c33 -3 63 -9 66 -13z m2479
-40 c0 -14 -289 -291 -380 -364 -228 -183 -486 -311 -868 -430 l-112 -35 29
36 c40 51 262 266 341 332 217 179 556 352 855 435 136 38 135 38 135 26z
m-210 -621 c35 -1 35 -1 -35 -45 -172 -110 -378 -200 -529 -230 -134 -27 -494
-46 -481 -25 15 24 267 163 363 201 179 70 424 113 582 103 36 -2 81 -4 100
-4z m-2339 -1096 c150 -44 287 -158 362 -302 44 -83 44 -109 1 -35 -101 173
-200 259 -374 324 -82 31 -76 38 11 13z"/>
<path d="M9235 9895 c-303 -43 -629 -156 -885 -307 -98 -58 -551 -417 -470
-373 8 5 53 34 100 65 413 275 792 425 1290 510 105 18 156 21 322 18 108 -2
200 -7 205 -11 4 -5 10 -97 11 -206 3 -176 1 -211 -22 -341 -90 -503 -239
-874 -517 -1287 -28 -41 -49 -76 -47 -79 10 -9 318 384 367 468 155 265 265
585 306 892 14 103 16 177 13 370 -3 133 -8 249 -12 258 -4 9 -15 20 -24 24
-34 14 -532 14 -637 -1z"/>
<path d="M7795 8177 c-90 -24 -156 -66 -246 -156 -138 -139 -192 -266 -248
-586 -15 -85 -26 -157 -24 -158 5 -6 267 42 368 68 57 14 141 45 194 71 79 39
110 62 181 133 162 162 199 298 147 546 l-12 60 -60 13 c-92 19 -242 24 -300
9z m125 -263 c0 -17 -58 -149 -93 -209 -48 -84 -187 -225 -270 -274 -52 -31
-140 -69 -195 -86 -22 -6 -23 -5 -17 17 37 122 97 226 188 324 81 87 177 153
290 200 84 34 97 38 97 28z"/>
<path d="M7767 7818 c-128 -67 -262 -200 -350 -346 -60 -100 -67 -118 -41
-108 75 28 189 111 290 211 89 89 118 125 152 192 23 44 42 84 42 87 0 11 -15
5 -93 -36z"/>
<path d="M5774 11675 c-116 -25 -198 -76 -319 -199 -160 -160 -269 -333 -348
-546 -109 -293 -128 -778 -47 -1130 25 -105 89 -301 102 -315 7 -7 9 -2 4 15
-16 64 -56 295 -67 385 -17 142 -14 427 5 560 35 239 119 465 239 645 117 175
241 279 396 334 73 25 101 30 181 30 79 0 103 -4 143 -23 73 -36 129 -114 143
-200 14 -87 -51 -181 -125 -181 -48 0 -76 21 -106 78 l-24 47 -1 -40 c0 -54
36 -124 79 -152 25 -17 48 -23 92 -23 81 0 130 38 184 144 38 76 40 82 40 175
0 89 -3 102 -33 163 -58 118 -173 202 -317 233 -84 18 -140 18 -221 0z"/>
<path d="M6801 11674 c-140 -30 -256 -116 -313 -232 -30 -61 -33 -74 -33 -163
0 -93 2 -99 40 -175 54 -106 103 -144 184 -144 44 0 67 6 92 23 43 28 79 98
79 152 l-1 40 -24 -47 c-30 -57 -58 -78 -106 -78 -74 0 -139 94 -125 181 14
86 70 164 143 200 40 19 64 23 143 23 254 0 468 -158 643 -474 80 -146 146
-351 173 -538 20 -139 22 -411 5 -557 -11 -90 -51 -320 -67 -385 -5 -17 -3
-22 4 -15 13 14 77 210 102 315 50 215 63 491 35 754 -19 177 -49 301 -109
443 -85 201 -190 356 -339 500 -170 164 -333 219 -526 177z"/>
<path d="M6121 8179 c5 -10 13 -21 19 -24 5 -3 37 -51 71 -105 62 -102 155
-200 189 -200 34 0 127 98 189 200 34 54 66 102 71 105 6 3 14 14 19 24 9 17
2 18 -127 15 -75 -2 -144 -3 -152 -3 -8 0 -77 1 -152 3 -129 3 -136 2 -127
-15z m312 -164 c-15 -19 -30 -35 -33 -35 -3 0 -18 16 -33 35 l-28 35 61 0 61
0 -28 -35z"/>
<path d="M2270 7779 c-401 -36 -763 -215 -1014 -499 -68 -77 -123 -195 -138
-296 -30 -205 71 -413 240 -496 61 -30 74 -33 163 -33 93 0 99 2 175 40 106
54 144 103 144 184 0 44 -6 67 -23 92 -28 43 -98 79 -152 79 l-40 -1 47 -24
c57 -30 78 -58 78 -106 0 -74 -94 -139 -181 -125 -86 14 -164 70 -200 143 -19
40 -23 64 -23 143 0 254 158 468 474 643 143 79 345 144 531 172 136 21 416
24 564 6 90 -11 321 -51 385 -67 56 -15 0 15 -85 44 -279 96 -606 131 -945
101z"/>
<path d="M10000 7774 c-58 -7 -148 -23 -200 -35 -107 -24 -300 -86 -315 -102
-7 -6 -2 -8 15 -3 63 16 295 56 385 67 141 17 437 14 565 -5 407 -62 776 -272
928 -526 11 -19 33 -71 48 -115 37 -109 39 -246 5 -318 -36 -73 -114 -129
-200 -143 -87 -14 -181 51 -181 125 0 48 21 76 78 106 l47 24 -40 1 c-54 0
-124 -36 -152 -79 -17 -25 -23 -48 -23 -92 0 -81 38 -130 144 -184 76 -38 82
-40 175 -40 89 0 102 3 163 33 123 60 205 176 235 332 23 114 9 213 -48 330
-35 73 -55 99 -152 196 -62 61 -146 134 -188 162 -178 119 -377 205 -554 241
-207 41 -525 52 -735 25z"/>
<path d="M6363 7758 c-11 -13 -30 -42 -42 -65 -23 -46 -55 -73 -85 -73 -30 0
-8 -15 48 -34 85 -28 248 -14 291 25 5 6 1 9 -11 9 -30 0 -62 27 -85 73 -27
53 -58 87 -79 87 -9 0 -26 -10 -37 -22z"/>
<path d="M5848 7380 c-78 -14 -141 -89 -141 -167 0 -98 141 -195 196 -135 24
26 22 30 -20 34 -36 3 -38 5 -41 39 -3 30 2 41 24 58 36 28 61 27 116 -8 86
-55 127 -173 98 -280 l-12 -44 -38 61 c-42 66 -69 88 -118 98 -30 6 -38 2 -92
-53 -40 -40 -60 -68 -60 -84 0 -41 37 -88 102 -128 l61 -39 -44 -12 c-107 -29
-225 12 -280 98 -35 55 -36 80 -8 116 17 22 28 27 58 24 34 -3 36 -5 39 -40 4
-42 11 -47 35 -20 56 61 -39 195 -137 195 -55 0 -102 -27 -140 -80 -25 -37
-29 -50 -28 -111 1 -209 173 -344 437 -343 96 0 150 9 256 43 l66 21 21 66
c34 106 43 160 43 256 1 144 -38 259 -113 341 -64 70 -188 111 -280 94z"/>
<path d="M6849 7380 c-179 -30 -291 -197 -290 -435 0 -96 9 -150 43 -256 l21
-66 66 -21 c106 -34 160 -43 256 -43 264 -1 436 134 437 343 1 61 -3 74 -28
111 -59 83 -150 105 -219 53 -70 -53 -96 -134 -57 -169 26 -24 30 -22 34 21 3
35 5 37 39 40 30 3 41 -2 58 -24 28 -36 27 -61 -8 -116 -55 -86 -173 -127
-280 -98 l-44 12 61 38 c66 42 88 69 98 118 6 30 2 38 -54 94 -56 56 -64 60
-94 54 -49 -10 -76 -32 -118 -98 l-38 -61 -12 44 c-29 107 12 225 98 280 55
35 80 36 116 8 22 -17 27 -28 24 -58 -3 -34 -5 -36 -40 -39 -42 -4 -47 -11
-20 -35 73 -66 221 66 192 172 -27 100 -120 151 -241 131z"/>
<path d="M6352 6887 c-46 -148 -103 -302 -120 -319 -17 -17 -171 -74 -319
-120 -79 -24 -143 -45 -143 -48 0 -3 64 -24 143 -48 148 -46 302 -103 319
-120 17 -17 74 -171 120 -319 24 -79 45 -143 48 -143 3 0 24 64 48 143 46 148
103 302 120 319 17 17 171 74 319 120 79 24 143 45 143 48 0 3 -64 24 -143 48
-148 46 -302 103 -319 120 -17 17 -74 171 -120 319 -24 79 -45 143 -48 143 -3
0 -24 -64 -48 -143z m68 -19 c7 -29 15 -60 18 -68 4 -11 -1 -10 -16 4 -22 19
-22 19 -44 0 -15 -14 -20 -15 -16 -4 3 8 11 39 18 68 8 28 17 52 20 52 3 0 12
-24 20 -52z m20 -137 c17 -22 46 -74 65 -115 l35 -75 83 -39 c45 -22 98 -54
117 -71 l35 -31 -35 -31 c-19 -17 -72 -49 -117 -71 l-82 -39 -39 -82 c-22 -45
-54 -98 -71 -117 l-31 -35 -31 35 c-17 19 -49 72 -71 117 l-39 82 -82 39 c-45
22 -98 54 -117 71 l-35 31 35 31 c19 17 72 49 117 71 l83 39 35 75 c34 74 89
154 105 154 5 0 22 -18 40 -39z m-445 -311 c-17 -19 -17 -21 1 -42 14 -15 15
-20 4 -16 -8 3 -39 11 -67 18 -29 8 -53 17 -53 20 0 5 99 36 124 39 5 1 1 -8
-9 -19z m873 0 c28 -8 52 -17 52 -20 0 -3 -24 -12 -52 -20 -29 -7 -60 -15 -68
-18 -11 -4 -10 1 4 16 19 22 19 22 0 44 -14 15 -15 20 -4 16 8 -3 39 -11 68
-18z m-446 -424 c15 14 20 15 16 4 -3 -8 -11 -39 -18 -67 -8 -29 -17 -53 -20
-53 -3 0 -12 24 -20 53 -7 28 -15 59 -18 67 -4 11 1 10 16 -4 22 -19 22 -19
44 0z"/>
<path d="M4606 6552 c2 -75 3 -144 3 -152 0 -8 -1 -77 -3 -152 -3 -129 -2
-136 15 -127 10 5 21 13 24 19 3 5 51 37 105 71 102 62 200 155 200 189 0 34
-98 127 -200 189 -54 34 -102 66 -105 71 -3 6 -14 14 -24 19 -17 9 -18 2 -15
-127z m214 -152 c0 -3 -16 -18 -35 -33 l-35 -28 0 61 0 61 35 -28 c19 -15 35
-30 35 -33z"/>
<path d="M8154 6659 c-21 -17 -75 -53 -120 -80 -86 -51 -184 -147 -184 -179 0
-34 98 -127 200 -189 54 -34 102 -66 105 -71 3 -6 14 -14 24 -19 17 -9 18 -2
15 127 -4 166 -4 138 0 305 1 75 2 137 1 137 -1 0 -20 -14 -41 -31z m-106
-288 l-3 -29 -35 29 -34 29 34 29 35 29 3 -29 c2 -16 2 -42 0 -58z"/>
<path d="M5175 6548 c-6 -19 -23 -41 -42 -53 -18 -11 -47 -29 -64 -40 -43 -27
-57 -50 -43 -72 10 -17 29 -31 106 -78 20 -12 38 -34 45 -55 12 -37 11 -38 38
39 20 57 19 165 -1 227 -22 65 -28 70 -39 32z"/>
<path d="M7606 6570 c-27 -72 -36 -112 -36 -170 0 -58 9 -98 36 -170 4 -10 10
-4 17 20 7 21 25 43 45 55 77 47 96 61 106 78 14 22 0 45 -43 72 -17 11 -46
29 -64 40 -19 12 -37 35 -44 55 -7 24 -13 30 -17 20z"/>
<path d="M1413 6336 c-103 -33 -198 -118 -248 -220 -71 -145 -69 -311 6 -466
35 -73 55 -99 152 -195 168 -167 366 -288 592 -364 284 -94 754 -108 1085 -31
105 25 301 89 315 102 7 7 2 9 -15 4 -64 -16 -295 -56 -385 -67 -128 -15 -426
-15 -530 0 -324 48 -574 153 -792 333 -111 92 -174 182 -219 313 -37 109 -39
246 -5 318 36 73 114 129 200 143 87 14 181 -51 181 -125 0 -48 -21 -76 -78
-106 l-47 -24 40 -1 c54 0 124 36 152 79 17 25 23 48 23 92 0 81 -38 130 -143
183 -68 35 -86 40 -159 43 -52 2 -99 -2 -125 -11z"/>
<path d="M11165 6333 c-79 -29 -143 -71 -175 -115 -39 -54 -42 -137 -7 -189
28 -43 98 -79 152 -79 l40 1 -47 24 c-57 30 -78 58 -78 106 0 74 94 139 181
125 86 -14 164 -70 200 -143 19 -40 23 -64 23 -143 -1 -187 -81 -347 -244
-485 -213 -179 -470 -288 -795 -336 -105 -15 -403 -15 -530 0 -90 11 -321 51
-385 67 -17 5 -22 3 -15 -4 14 -13 210 -77 315 -102 331 -77 801 -63 1085 31
226 76 424 197 592 364 97 96 117 122 152 195 29 60 45 109 53 166 30 204 -71
413 -239 496 -83 40 -198 49 -278 21z"/>
<path d="M2281 6254 c-93 -33 -174 -105 -214 -192 -18 -40 -21 -66 -21 -167 0
-110 2 -127 31 -203 43 -112 94 -192 177 -280 198 -208 458 -295 794 -264 70
6 159 18 197 25 39 8 90 17 115 20 42 5 43 5 13 -5 -18 -6 -35 -18 -38 -28 -3
-9 -32 -29 -64 -44 -110 -51 -365 -209 -573 -356 l-46 -33 -94 46 c-143 70
-195 81 -388 82 -233 0 -277 -14 -495 -160 -221 -147 -394 -231 -590 -287
-107 -30 -335 -32 -435 -4 -94 26 -211 83 -323 159 -93 62 -99 65 -93 39 12
-52 85 -188 133 -247 148 -183 387 -303 688 -345 l90 -13 -100 -17 c-55 -10
-136 -28 -180 -41 -71 -21 -98 -24 -250 -23 -195 1 -304 18 -430 67 l-80 32
64 6 c59 6 68 10 103 47 33 36 38 48 38 88 0 94 -54 154 -145 162 -87 7 -147
-40 -161 -126 -11 -67 3 -109 50 -157 81 -81 271 -133 526 -144 l145 -6 -41
-22 c-173 -92 -366 -294 -483 -506 -45 -83 -107 -232 -117 -281 l-6 -34 87 -7
c124 -11 407 1 490 19 146 33 332 108 417 167 14 11 29 19 31 19 3 0 -18 -51
-48 -112 -117 -245 -146 -460 -74 -552 47 -59 154 -84 219 -51 71 37 100 150
54 212 -78 105 -214 97 -272 -17 l-23 -45 5 75 c7 105 47 234 115 376 50 104
71 134 146 215 47 52 109 128 137 169 28 41 48 66 45 55 -3 -11 -20 -67 -37
-125 -80 -271 -58 -541 61 -743 41 -69 152 -197 163 -186 3 3 -1 43 -9 90 -9
46 -16 143 -17 214 -1 106 3 144 20 208 44 157 123 279 270 418 130 123 236
196 523 359 117 66 198 157 272 305 67 134 82 202 82 365 0 132 -2 149 -23
188 -28 52 -48 32 183 186 309 206 684 400 920 476 39 12 77 28 85 35 16 13
201 77 207 72 1 -2 -47 -39 -109 -83 -819 -580 -1304 -1279 -1449 -2091 -17
-95 -22 -173 -26 -400 -3 -156 -9 -283 -13 -283 -4 0 -22 -13 -39 -29 -24 -22
-31 -38 -31 -65 0 -31 3 -36 24 -36 41 0 73 17 92 48 l17 30 281 5 c226 4 304
9 399 26 806 144 1502 624 2079 1434 50 70 93 126 95 124 5 -6 -59 -191 -72
-207 -7 -8 -23 -46 -35 -85 -77 -241 -299 -665 -508 -971 -120 -174 -102 -159
-154 -133 -65 34 -253 39 -367 11 -225 -57 -407 -185 -497 -350 -137 -248
-231 -385 -353 -514 -140 -148 -262 -226 -418 -269 -94 -27 -289 -28 -422 -4
-47 8 -87 12 -90 10 -7 -8 57 -71 122 -120 208 -158 502 -195 812 -103 55 16
109 32 120 35 11 3 -14 -17 -55 -45 -41 -28 -117 -90 -169 -137 -81 -75 -111
-96 -215 -146 -142 -68 -265 -106 -373 -114 l-78 -6 45 23 c114 58 122 194 17
272 -62 46 -175 17 -212 -54 -33 -65 -8 -172 51 -219 92 -72 307 -43 552 74
61 30 112 51 112 48 0 -2 -9 -18 -20 -34 -12 -15 -43 -75 -70 -131 -86 -182
-120 -347 -120 -584 0 -189 8 -274 26 -274 52 0 306 117 414 190 165 112 295
248 383 400 l32 55 6 -145 c13 -303 85 -512 193 -564 72 -34 178 -7 216 56 24
40 26 107 4 154 -24 51 -68 77 -135 82 -55 4 -59 3 -100 -35 -38 -36 -42 -45
-48 -104 l-6 -64 -32 80 c-50 128 -67 235 -67 435 0 157 2 183 23 249 13 40
31 119 41 175 l17 101 13 -90 c42 -301 162 -540 345 -688 59 -48 195 -121 247
-133 26 -6 23 0 -39 93 -76 112 -133 229 -159 323 -28 99 -26 327 4 438 49
182 138 363 287 587 147 220 171 296 163 529 -6 159 -30 255 -96 378 l-35 66
120 179 c127 189 210 325 264 436 18 37 41 69 50 72 9 3 21 20 27 38 11 32 11
32 6 -8 -3 -22 -12 -71 -19 -110 -81 -414 -14 -738 198 -961 146 -154 315
-240 493 -251 127 -8 211 17 286 86 74 68 110 143 116 242 4 67 1 83 -23 138
-33 72 -107 145 -163 161 -108 30 -186 -4 -248 -105 l-18 -30 35 31 c97 89
199 83 267 -16 58 -86 4 -248 -101 -302 -122 -62 -309 37 -396 210 l-32 63 3
192 3 192 -31 65 c-18 36 -62 101 -98 145 -124 149 -151 233 -141 438 7 157
11 172 91 390 42 114 60 154 65 140 4 -10 8 -99 8 -198 2 -251 31 -346 140
-456 68 -67 120 -86 277 -99 60 -5 132 -12 159 -15 l51 -7 -18 143 c-20 164
-28 192 -68 248 -45 61 -120 105 -251 145 -69 21 -132 48 -158 66 -50 36 -95
104 -118 177 -17 53 -16 54 15 171 115 420 154 724 150 1142 l-3 265 -320 0
c-419 0 -616 -26 -1028 -132 l-179 -46 -52 16 c-72 23 -140 69 -176 118 -18
26 -45 89 -66 158 -40 131 -84 206 -145 251 -56 40 -84 48 -248 68 l-143 18 6
-49 c4 -27 11 -99 17 -161 13 -159 31 -209 98 -277 110 -109 205 -138 456
-140 99 0 188 -4 198 -8 14 -5 -26 -23 -140 -65 -218 -80 -237 -84 -391 -91
-204 -10 -289 17 -437 141 -44 37 -109 81 -145 98 l-65 31 -192 -3 -192 -3
-63 32 c-173 87 -272 274 -210 396 54 105 216 159 302 101 99 -68 105 -170 16
-267 l-31 -35 30 18 c101 62 135 140 105 247 -16 55 -85 127 -155 160 -70 34
-160 38 -234 13z m1205 -382 c99 -171 199 -257 374 -323 82 -31 76 -38 -11
-13 -155 46 -287 158 -368 313 -46 88 -42 105 5 23z m1629 -269 c-258 -53
-530 -163 -730 -298 -443 -297 -680 -717 -702 -1243 -6 -152 -6 -154 -38 -195
-43 -58 -68 -103 -94 -167 -19 -50 -54 -191 -48 -197 6 -6 147 29 197 48 65
26 109 51 169 96 42 32 47 33 140 33 529 1 992 252 1293 699 151 226 246 469
317 811 l9 45 1 -50 c3 -142 -39 -444 -100 -715 -45 -199 -49 -207 -216 -441
-145 -204 -239 -315 -443 -520 -499 -501 -1031 -792 -1645 -900 -93 -16 -180
-22 -384 -26 l-264 -6 6 264 c4 222 9 287 31 410 83 475 296 920 644 1349 98
121 385 410 517 520 109 91 319 245 433 316 72 46 98 56 215 83 303 70 561
108 742 109 l70 0 -120 -25z m505 0 c-1 -65 -22 -283 -36 -363 -82 -493 -318
-935 -635 -1190 -253 -203 -528 -305 -878 -326 l-114 -7 6 57 c3 32 1 84 -5
116 l-10 58 -58 10 c-32 6 -84 8 -116 5 l-57 -6 7 114 c21 350 121 622 322
873 296 369 833 624 1399 666 171 12 175 12 175 -7z m-3064 -862 c-3 -5 -59
-41 -123 -80 -169 -101 -308 -157 -489 -195 -104 -22 -309 -37 -389 -28 l-70
8 72 47 c163 105 384 199 533 226 130 23 477 40 466 22z m76 -128 c-41 -51
-262 -266 -342 -333 -154 -128 -404 -270 -630 -360 -114 -46 -350 -114 -359
-104 -10 10 309 315 415 395 216 166 412 263 764 380 96 32 177 58 178 59 2 0
-10 -17 -26 -37z m38 -158 c-25 -64 -126 -254 -172 -323 -65 -96 -219 -256
-321 -333 -88 -67 -215 -144 -223 -136 -8 8 113 243 174 337 60 93 172 214
269 292 72 57 263 188 275 188 4 0 3 -11 -2 -25z m2930 -710 c61 -104 148
-187 273 -260 74 -42 48 -42 -34 1 -85 45 -188 137 -235 211 -34 52 -84 186
-84 220 1 10 14 -16 29 -57 16 -41 39 -93 51 -115z m-1733 49 l38 -34 -60 6
c-33 3 -63 9 -66 13 -4 3 -10 33 -13 66 l-6 60 34 -38 c19 -21 52 -54 73 -73z
m-86 -101 c33 -14 56 -29 52 -33 -10 -10 -193 -34 -200 -27 -6 6 14 171 24
197 3 9 16 -8 34 -48 28 -59 33 -64 90 -89z m644 -1110 c-139 -211 -279 -361
-425 -455 -94 -61 -329 -182 -337 -174 -8 8 69 135 137 224 75 99 245 264 335
324 39 25 124 73 190 106 126 62 147 71 154 66 2 -2 -22 -43 -54 -91z m188
-35 c-62 -198 -113 -329 -188 -483 -80 -164 -137 -255 -242 -385 -74 -92 -350
-380 -365 -380 -17 0 38 194 104 363 136 349 313 608 612 895 58 56 108 102
110 102 2 0 -12 -51 -31 -112z m127 -248 c-13 -186 -26 -260 -69 -383 -33 -95
-118 -266 -184 -371 l-44 -68 -6 80 c-14 182 28 445 102 634 35 89 155 309
194 357 18 22 20 -58 7 -249z"/>
<path d="M3425 4737 c-167 -204 -233 -305 -316 -487 -107 -233 -172 -455 -204
-694 -14 -103 -16 -177 -13 -370 3 -133 8 -249 12 -258 4 -9 15 -20 24 -24 9
-4 123 -9 253 -12 338 -7 559 26 837 123 284 99 459 198 703 397 101 82 191
157 199 166 18 19 10 14 -135 -80 -403 -263 -763 -403 -1256 -488 -108 -19
-156 -21 -322 -18 -107 1 -199 7 -204 11 -4 5 -9 97 -11 205 -3 166 0 217 18
322 85 500 237 882 512 1293 33 49 58 90 56 92 -2 3 -71 -78 -153 -178z"/>
<path d="M5385 5503 c-206 -36 -322 -69 -425 -119 -79 -39 -110 -62 -181 -133
-161 -160 -198 -299 -146 -546 l12 -60 60 -12 c248 -52 384 -15 545 147 139
138 193 265 249 585 15 86 25 157 22 159 -3 1 -64 -8 -136 -21z m70 -65 c-17
-55 -56 -143 -86 -195 -49 -83 -190 -222 -274 -270 -75 -43 -204 -98 -212 -90
-8 8 56 157 94 220 89 147 252 278 418 338 65 23 68 23 60 -3z"/>
<path d="M5339 5389 c-159 -94 -289 -225 -359 -360 -23 -44 -39 -83 -37 -86 3
-2 42 14 86 37 131 68 265 200 354 348 52 87 63 112 50 112 -5 0 -48 -23 -94
-51z"/>
<path d="M10285 6242 c-70 -34 -140 -106 -155 -161 -30 -107 4 -185 105 -247
l30 -18 -31 35 c-89 97 -83 199 16 267 86 58 248 4 302 -101 62 -122 -37 -309
-210 -396 l-63 -32 -192 3 -192 3 -65 -31 c-36 -17 -101 -61 -145 -98 -148
-124 -233 -151 -437 -141 -154 7 -173 11 -391 91 -114 42 -154 60 -140 65 10
4 99 8 198 8 251 2 346 31 456 140 67 68 85 118 98 277 6 62 13 134 17 161 l6
49 -143 -18 c-164 -20 -192 -28 -248 -68 -61 -45 -105 -120 -145 -251 -21 -69
-48 -132 -66 -158 -36 -49 -104 -95 -176 -118 l-52 -16 -179 46 c-412 106
-609 132 -1028 132 l-320 0 -3 -265 c-4 -418 35 -722 150 -1142 31 -117 32
-118 15 -171 -23 -73 -68 -141 -118 -177 -26 -18 -89 -45 -158 -66 -131 -40
-206 -84 -251 -145 -40 -56 -48 -84 -68 -248 l-18 -143 51 7 c27 3 99 10 159
15 157 13 209 32 277 99 109 110 138 205 140 456 0 99 4 188 8 198 5 14 23
-26 65 -140 80 -218 84 -237 91 -391 10 -204 -17 -288 -141 -437 -36 -44 -80
-109 -98 -145 l-31 -65 3 -192 3 -192 -32 -63 c-87 -173 -274 -272 -396 -210
-105 54 -159 216 -100 302 67 99 169 105 266 16 l35 -31 -18 30 c-29 48 -68
86 -103 101 -42 18 -114 18 -158 0 -56 -24 -120 -91 -150 -157 -24 -55 -27
-71 -23 -138 9 -149 102 -270 240 -312 138 -42 323 -8 480 87 72 44 186 148
238 220 159 214 207 530 135 884 -7 36 -15 85 -18 110 -5 42 -5 43 5 13 6 -18
18 -35 27 -38 9 -3 34 -40 55 -82 54 -111 122 -222 259 -426 l120 -179 -35
-66 c-20 -37 -49 -105 -64 -152 -26 -79 -28 -97 -28 -255 -1 -238 12 -280 159
-500 150 -226 229 -387 282 -574 24 -84 27 -114 27 -241 1 -110 -4 -161 -18
-210 -26 -94 -83 -211 -159 -323 -62 -93 -65 -99 -39 -93 52 12 188 85 247
133 94 77 171 175 230 298 61 125 88 215 111 365 8 58 16 106 18 108 2 1 7
-25 10 -60 4 -34 22 -114 39 -178 29 -108 31 -125 31 -285 -1 -195 -18 -304
-67 -430 l-32 -80 -6 64 c-6 59 -10 68 -48 104 -41 38 -45 39 -100 35 -67 -5
-111 -31 -135 -82 -22 -47 -20 -114 4 -154 38 -63 144 -90 216 -56 108 52 180
261 193 564 l6 145 32 -55 c89 -153 218 -288 385 -401 108 -74 360 -189 412
-189 18 0 26 85 26 274 0 237 -34 402 -120 584 -27 56 -58 116 -70 131 -11 16
-20 32 -20 34 0 3 51 -18 113 -48 244 -117 459 -146 551 -74 59 47 84 154 51
219 -37 71 -150 100 -212 54 -105 -78 -97 -214 17 -272 l45 -23 -78 6 c-108 8
-231 46 -373 114 -104 50 -134 71 -215 146 -52 47 -128 109 -169 137 -41 28
-66 48 -55 45 11 -3 65 -19 120 -35 310 -92 604 -55 812 103 65 49 129 112
122 120 -3 2 -43 -2 -90 -10 -46 -9 -142 -16 -214 -17 -106 -1 -144 3 -208 20
-157 44 -279 123 -418 270 -123 130 -198 239 -359 523 -50 89 -110 151 -203
212 -100 65 -180 101 -288 129 -114 28 -302 23 -367 -11 -53 -27 -32 -47 -186
184 -207 311 -393 669 -471 905 -16 47 -34 92 -40 100 -13 16 -77 201 -72 207
2 2 45 -54 95 -124 578 -812 1271 -1290 2079 -1434 95 -17 173 -22 401 -26
155 -3 282 -9 282 -13 0 -4 13 -22 29 -39 22 -24 38 -31 65 -31 35 0 36 1 36
36 0 27 -7 43 -31 65 -17 16 -35 29 -39 29 -4 0 -10 127 -13 283 -4 227 -9
305 -26 400 -145 811 -630 1511 -1449 2091 -62 44 -110 81 -109 83 6 5 191
-59 207 -72 8 -7 47 -23 85 -35 236 -76 611 -270 920 -476 231 -154 211 -134
183 -186 -21 -39 -23 -56 -23 -188 0 -162 15 -230 81 -364 72 -145 156 -240
273 -306 287 -163 393 -236 523 -359 147 -139 226 -261 270 -418 17 -64 21
-102 20 -208 -1 -71 -8 -168 -17 -214 -8 -47 -12 -87 -10 -90 10 -9 96 83 140
150 81 121 135 300 135 448 0 96 -21 232 -52 336 -16 55 -32 109 -35 120 -3
11 17 -14 45 -55 28 -41 90 -117 137 -169 75 -81 96 -111 146 -215 68 -142
108 -271 115 -376 l5 -75 -23 45 c-58 114 -194 122 -272 17 -46 -62 -17 -175
54 -212 65 -33 172 -8 219 51 72 92 43 307 -74 552 -30 61 -51 112 -48 112 2
0 17 -8 31 -19 85 -59 271 -134 417 -167 82 -18 366 -30 489 -19 96 8 95 7 70
82 -104 311 -321 589 -574 736 l-55 32 145 6 c303 13 512 85 564 193 34 71 7
177 -56 216 -26 17 -45 20 -89 18 -95 -7 -149 -66 -149 -162 0 -40 5 -52 38
-88 35 -37 44 -41 103 -47 l64 -6 -80 -32 c-126 -49 -235 -66 -430 -67 -152
-1 -179 2 -250 23 -44 13 -125 31 -180 41 l-99 17 114 17 c288 44 515 161 660
338 50 62 123 197 136 250 6 26 0 23 -93 -39 -112 -76 -229 -133 -323 -159
-49 -14 -100 -19 -210 -18 -127 0 -157 3 -241 27 -187 53 -348 132 -574 282
-219 146 -262 160 -495 160 -193 -1 -245 -12 -388 -82 l-94 -46 -45 32 c-211
149 -465 307 -574 357 -32 15 -61 35 -64 44 -3 10 -20 22 -38 28 -30 10 -29
10 13 5 25 -3 77 -12 115 -20 136 -27 314 -38 432 -25 134 14 207 33 300 77
104 49 179 103 259 187 84 88 134 169 176 280 29 76 32 93 32 203 0 141 -14
184 -88 263 -66 70 -141 105 -241 109 -72 4 -86 1 -140 -25z m-967 -394 c-80
-154 -212 -266 -367 -312 -87 -25 -93 -18 -11 13 179 67 274 152 388 345 40
67 33 36 -10 -46z m-1543 -228 c194 -18 363 -46 602 -101 117 -27 143 -37 215
-83 114 -71 324 -225 433 -316 132 -110 419 -399 517 -520 306 -377 521 -794
612 -1191 46 -196 58 -303 63 -568 l6 -264 -264 6 c-274 6 -389 19 -589 68
-387 96 -781 297 -1140 583 -140 111 -432 400 -556 548 -91 110 -274 363 -328
453 -27 46 -44 97 -71 215 -59 256 -107 590 -104 735 1 43 4 33 26 -70 87
-425 297 -807 581 -1058 275 -242 634 -376 1013 -377 93 0 98 -1 140 -33 60
-45 104 -70 169 -96 50 -19 191 -54 197 -48 6 6 -29 147 -48 197 -26 64 -51
109 -94 167 -32 41 -32 43 -38 195 -22 523 -260 947 -696 1240 -203 136 -477
248 -736 301 -103 22 -113 25 -70 26 28 1 100 -4 160 -9z m-440 -9 c667 -49
1245 -359 1528 -819 125 -202 197 -447 213 -721 l7 -114 -57 6 c-32 3 -84 1
-116 -5 l-58 -10 -10 -58 c-6 -32 -8 -84 -5 -116 l6 -57 -114 7 c-585 35
-1024 325 -1301 862 -141 274 -218 572 -243 942 -6 85 -5 92 12 92 10 0 72 -5
138 -9z m3180 -871 c161 -12 254 -29 363 -66 96 -33 269 -119 365 -181 l72
-47 -70 -8 c-80 -9 -285 6 -389 28 -180 38 -324 95 -493 197 -62 37 -115 72
-118 77 -8 13 92 13 270 0z m-40 -202 c139 -50 387 -171 485 -236 41 -28 113
-81 160 -119 100 -80 388 -359 379 -367 -9 -10 -245 59 -359 104 -226 90 -476
232 -630 360 -79 66 -301 281 -341 332 l-29 36 112 -35 c62 -19 163 -53 223
-75z m-248 -119 c205 -137 353 -276 445 -419 61 -94 182 -329 174 -337 -8 -8
-135 69 -224 137 -99 74 -263 244 -323 335 -43 65 -146 260 -169 321 -13 34
-4 30 97 -37z m-2962 -566 c-44 -153 -158 -290 -303 -366 -83 -44 -109 -45
-35 -2 172 100 283 235 334 404 7 24 15 39 17 33 2 -7 -4 -38 -13 -69z m1770
-10 c-4 -32 -10 -61 -14 -64 -3 -4 -33 -10 -65 -14 l-60 -7 70 71 c38 38 70
70 72 71 2 0 0 -26 -3 -57z m125 -111 c6 -51 10 -96 7 -99 -7 -7 -190 18 -200
27 -4 4 19 19 53 33 57 25 62 30 87 87 14 34 29 57 33 53 4 -4 13 -50 20 -101z
m-677 -1128 c61 -31 143 -77 182 -103 91 -60 261 -224 335 -323 68 -89 145
-216 137 -224 -8 -8 -243 113 -337 174 -143 92 -282 240 -419 445 -67 101 -71
110 -37 97 15 -5 77 -35 139 -66z m-138 -125 c67 -68 145 -153 175 -189 128
-155 271 -404 360 -630 46 -115 114 -350 104 -359 -10 -10 -315 309 -395 415
-171 222 -287 464 -402 832 l-35 112 36 -29 c21 -16 91 -85 157 -152z m-211
-38 c102 -168 163 -317 200 -496 22 -104 36 -295 29 -387 l-6 -80 -44 68
c-107 166 -198 376 -228 526 -26 129 -46 496 -26 484 4 -3 38 -55 75 -115z"/>
<path d="M9220 4917 c0 -4 26 -47 58 -95 230 -342 366 -648 457 -1027 64 -265
77 -367 73 -587 -2 -108 -7 -200 -11 -205 -5 -4 -97 -9 -205 -11 -220 -4 -322
9 -587 73 -379 91 -690 230 -1039 464 -39 26 -78 51 -86 56 -30 16 15 -23 199
-173 244 -199 419 -298 703 -397 278 -97 499 -130 837 -123 130 3 244 8 253
12 9 4 20 15 24 24 4 9 9 125 12 258 5 271 -8 408 -59 614 -88 362 -221 627
-461 921 -166 204 -168 206 -168 196z"/>
<path d="M7277 5523 c-2 -1 9 -73 24 -158 56 -320 110 -448 248 -585 162 -162
299 -199 546 -147 l60 12 12 60 c52 247 15 383 -147 546 -137 138 -271 194
-608 252 -73 13 -134 22 -135 20z m166 -98 c32 -13 83 -38 114 -56 83 -49 222
-190 270 -274 43 -75 98 -204 90 -212 -8 -8 -137 47 -212 90 -84 48 -225 187
-274 270 -31 52 -69 140 -86 195 -8 28 -3 27 98 -13z"/>
<path d="M7364 5424 c4 -10 28 -54 53 -96 89 -148 223 -280 354 -348 44 -23
83 -39 86 -37 10 11 -80 168 -129 224 -72 82 -167 163 -257 216 -99 60 -117
67 -107 41z"/>
<path d="M5775 6239 c-221 -28 -356 -157 -357 -340 -1 -62 3 -75 28 -112 59
-83 150 -105 219 -53 70 53 96 134 57 169 -26 24 -30 22 -34 -20 -3 -36 -5
-38 -39 -41 -30 -3 -41 2 -58 24 -28 36 -27 61 8 116 55 86 173 127 280 98
l44 -12 -61 -39 c-65 -40 -102 -87 -102 -128 0 -16 20 -44 60 -84 54 -55 62
-59 92 -53 49 10 76 32 118 98 l38 61 12 -44 c29 -107 -12 -225 -98 -280 -55
-35 -80 -36 -116 -8 -22 17 -27 28 -24 58 3 34 5 36 41 39 41 4 46 11 19 35
-40 36 -116 11 -165 -55 -32 -43 -39 -75 -26 -121 33 -119 177 -165 319 -101
136 61 212 208 211 409 0 96 -9 150 -43 256 l-21 67 -86 26 c-78 24 -115 30
-221 40 -19 2 -62 0 -95 -5z"/>
<path d="M6872 6239 c-39 -4 -112 -19 -160 -34 l-89 -27 -21 -67 c-34 -106
-43 -160 -43 -256 -1 -201 75 -348 211 -409 144 -65 287 -18 320 104 22 84
-60 190 -148 190 -25 0 -62 -25 -62 -43 0 -3 17 -7 38 -9 35 -3 37 -5 40 -39
3 -30 -2 -41 -24 -58 -36 -28 -61 -27 -116 8 -86 55 -127 173 -98 280 l12 44
38 -61 c42 -66 69 -88 118 -98 30 -6 38 -2 94 54 56 56 60 64 54 94 -10 49
-32 76 -98 118 l-61 38 44 12 c107 29 225 -12 280 -98 35 -55 36 -80 8 -116
-17 -22 -28 -27 -58 -24 -34 3 -36 5 -39 41 -4 41 -11 46 -35 19 -56 -61 39
-195 137 -195 55 0 102 27 140 80 25 37 29 50 28 111 -1 228 -216 371 -510
341z"/>
<path d="M6285 5214 c-22 -8 -47 -17 -55 -20 -10 -4 -4 -10 20 -17 20 -7 43
-25 55 -44 11 -18 29 -47 40 -64 27 -43 50 -57 73 -43 9 6 26 25 37 43 11 17
29 46 40 64 12 19 35 37 55 44 37 12 38 11 -39 38 -54 19 -173 18 -226 -1z"/>
<path d="M6327 4900 c-33 -30 -80 -91 -116 -150 -34 -54 -66 -102 -71 -105 -6
-3 -14 -14 -19 -24 -9 -17 -2 -18 127 -15 75 2 144 3 152 3 8 0 77 -1 152 -3
129 -3 136 -2 127 15 -5 10 -13 21 -19 24 -5 3 -37 51 -71 105 -62 102 -155
200 -189 200 -10 0 -43 -23 -73 -50z m106 -115 l28 -35 -61 0 -61 0 28 35 c15
19 30 35 33 35 3 0 18 -16 33 -35z"/>
<path d="M5151 3299 c-26 -71 -73 -225 -91 -299 -78 -336 -62 -826 36 -1102
80 -223 198 -413 359 -575 96 -97 122 -117 195 -152 60 -29 109 -45 166 -53
205 -30 413 71 496 240 30 61 33 74 33 163 0 93 -2 99 -40 175 -54 106 -103
144 -184 144 -44 0 -67 -6 -92 -23 -43 -28 -79 -98 -79 -152 l1 -40 21 40 c34
67 56 85 104 85 54 0 96 -34 120 -95 37 -97 -23 -227 -129 -282 -46 -24 -63
-27 -147 -27 -160 1 -314 67 -431 186 -156 159 -277 378 -344 622 -78 285 -78
663 0 1041 23 115 26 155 6 104z"/>
<path d="M7634 3300 c16 -64 56 -295 67 -385 17 -141 14 -427 -5 -560 -42
-289 -156 -554 -326 -758 -99 -119 -181 -177 -315 -223 -65 -22 -98 -28 -175
-28 -84 0 -101 3 -147 27 -106 55 -166 185 -129 282 24 61 66 95 120 95 48 0
70 -18 104 -85 l21 -40 1 40 c0 54 -36 124 -79 152 -25 17 -48 23 -92 23 -81
0 -130 -38 -184 -144 -38 -76 -40 -82 -40 -175 0 -89 3 -102 33 -163 60 -123
176 -205 332 -235 113 -23 213 -8 327 46 138 66 301 237 424 443 65 110 135
276 165 394 69 273 70 707 4 994 -25 105 -89 301 -102 315 -7 7 -9 2 -4 -15z"/>
</g>
</svg>
